<?xml version="1.0" encoding="utf-8"?>
<!-- Generator: Adobe Illustrator 25.4.1, SVG Export Plug-In . SVG Version: 6.00 Build 0)  -->
<svg version="1.1" id="Layer_1" xmlns="http://www.w3.org/2000/svg" xmlns:xlink="http://www.w3.org/1999/xlink" x="0px" y="0px"
	 viewBox="0 0 90 90" style="enable-background:new 0 0 90 90;" xml:space="preserve">
<g id="XMLID_00000005977829635803455160000010667531173822034605_">
	<g>
		<path fill="white" d="M34.8,27.9c2,4.4,3.7,9.8,2.9,13.2c-0.3,1.4-1.3,3.3-2.3,5c-0.1,0.2-0.3,0.5-0.4,0.7c-0.1,0.1-0.2,0.2-0.3,0.2h-12
			c-0.3,0-0.5-0.4-0.3-0.6l0.2-0.3l11.7-18.3C34.3,27.6,34.7,27.6,34.8,27.9z"/>
	</g>
	<g>
	</g>
</g>
<g id="XMLID_00000111173717580010615100000015315607141176785573_">
	<g>
		<path fill="white" d="M42.2,23l0.7,0.2l0.7,0.2l0.3,0.1v-2.9c0-1.4,1.1-2.6,2.5-2.6c0.7,0,1.3,0.3,1.8,0.8c0.5,0.5,0.7,1.1,0.7,1.8v4.4l0.5,0.1
			c0,0,0.1,0,0.1,0.1c0.1,0.1,0.3,0.2,0.6,0.4c0.2,0.1,0.4,0.3,0.6,0.5c0.5,0.4,1,0.9,1.7,1.5c0.2,0.1,0.3,0.3,0.5,0.4
			c0.8,0.8,1.7,1.6,2.6,2.6c0.2,0.3,0.5,0.6,0.7,0.8c0.2,0.3,0.5,0.6,0.7,0.9c0.3,0.4,0.6,0.8,0.9,1.2c0.1,0.2,0.3,0.4,0.4,0.6
			c0.3,0.5,0.7,1.1,1,1.6c0.1,0.3,0.2,0.5,0.4,0.8c0.3,0.7,0.6,1.5,0.8,2.2c0.1,0.2,0.1,0.3,0.1,0.5v0c0.1,0.2,0.1,0.5,0.1,0.7
			c0.1,0.8,0,1.5-0.1,2.3c-0.1,0.3-0.2,0.6-0.3,1c-0.1,0.3-0.2,0.6-0.4,1c-0.3,0.7-0.6,1.3-1,1.9c-0.1,0.2-0.3,0.5-0.4,0.7
			c-0.2,0.2-0.3,0.5-0.5,0.7c-0.2,0.3-0.4,0.6-0.6,0.8c-0.2,0.3-0.4,0.6-0.6,0.8c-0.3,0.4-0.6,0.7-0.9,1c-0.2,0.2-0.4,0.4-0.6,0.6
			c-0.2,0.2-0.4,0.4-0.6,0.6c-0.3,0.3-0.6,0.5-0.8,0.8l-0.5,0.5c-0.1,0.1-0.2,0.1-0.3,0.1H49v5.1h5c1.1,0,2.2-0.4,3-1.1
			c0.3-0.2,1.6-1.4,3.1-3c0-0.1,0.1-0.1,0.2-0.1l13.7-4c0.2-0.1,0.5,0.1,0.5,0.4v2.9c0,0.2-0.1,0.3-0.2,0.4c-0.9,0.4-4,1.8-5.3,3.6
			c-3.3,4.6-5.8,11.1-11.4,11.1H34c-8.3,0-15.1-6.8-15.1-15.1v-0.3c0-0.2,0.2-0.4,0.4-0.4h13.1c0.3,0,0.5,0.2,0.4,0.5
			c-0.1,0.8,0.1,1.7,0.5,2.5c0.8,1.6,2.4,2.6,4.1,2.6h6.5v-5.1h-6.4c-0.3,0-0.5-0.4-0.3-0.6c0.1-0.1,0.1-0.2,0.2-0.3
			c0.6-0.9,1.5-2.2,2.3-3.7c0.6-1,1.1-2.1,1.6-3.2c0.1-0.2,0.2-0.4,0.2-0.6c0.1-0.3,0.2-0.7,0.4-1c0.1-0.3,0.2-0.6,0.2-0.8
			c0.2-0.9,0.3-1.9,0.3-3c0-0.4,0-0.8-0.1-1.2c0-0.4-0.1-0.9-0.1-1.3c0-0.4-0.1-0.8-0.2-1.2c-0.1-0.6-0.2-1.2-0.4-1.8l0-0.2
			c-0.1-0.4-0.2-0.8-0.3-1.2c-0.4-1.3-0.8-2.5-1.2-3.6c-0.2-0.5-0.3-0.9-0.5-1.3c-0.3-0.7-0.5-1.3-0.8-1.8c-0.1-0.3-0.2-0.5-0.3-0.7
			c-0.1-0.3-0.2-0.5-0.4-0.8c-0.1-0.2-0.2-0.4-0.3-0.6L37,22.1c-0.1-0.2,0.1-0.4,0.3-0.4L42.2,23L42.2,23L42.2,23z"/>
	</g>
	<g>
	</g>
</g>
</svg>
